/* XPM */
static char *logo[] = {
/* columns rows colors chars-per-pixel */
"22 20 48 1 ",
"  c #2D2D2D",
". c #313131",
"X c #373737",
"o c #393939",
"O c #3C3C3C",
"+ c gray26",
"@ c #464646",
"# c #494949",
"$ c #4C4C4C",
"% c #505050",
"& c #555555",
"* c gray35",
"= c #5F5F5F",
"- c #656565",
"; c DimGray",
": c #6C6C6C",
"> c #717171",
", c gray45",
"< c #797979",
"1 c #7C7C7C",
"2 c #818181",
"3 c #838383",
"4 c #8B8B8B",
"5 c gray56",
"6 c #929292",
"7 c gray59",
"8 c #9A9A9A",
"9 c #9D9D9D",
"0 c gray64",
"q c #ACACAC",
"w c #B2B2B2",
"e c #B4B4B4",
"r c #B9B9B9",
"t c gray75",
"y c gray76",
"u c gray77",
"i c #CBCBCB",
"p c #D2D2D2",
"a c gray84",
"s c gainsboro",
"d c gray89",
"f c #E7E7E7",
"g c gray92",
"h c #EFEFEF",
"j c #F3F3F3",
"k c gray97",
"l c #F9F9F9",
"z c white",
/* pixels */
"                      ",
"                      ",
" =997.599;            ",
" ofzz61zzj@           ",
"  ;zzl%uzzy           ",
"   wzzp@jzz<          ",
"   Ogzz42zzh+:555556< ",
"    :zzk$uzzy&lzzzzzi ",
"     wzzi$kzz>7dddddr ",
"     =zzz&rzzgO       ",
"    .izze*zzzzw*zzzzi ",
"    4zzk@szzzzz:0zzzp ",
"   #kzz>8zzd8zzg+>>>- ",
"   uzzt%lzz-.pzzq     ",
"  2zzj+azzq  %lzz-    ",
" +jzz<7zzgo   7zzfX   ",
" *22< 122&    .222$   ",
"                      ",
"                      ",
"                      "
};
